<?xml version="1.0" encoding="UTF-8"?>
<svg xmlns="http://www.w3.org/2000/svg" viewBox="0 0 120 120" fill="none" stroke="#065f46" stroke-width="3" stroke-linecap="round" stroke-linejoin="round"><ellipse cx="66" cy="86" rx="24" ry="16" fill="#fbbf24"/><path d="M50 74 L46 40 Q46 30 56 30 L58 30 Q66 30 66 40 L64 72 Z" fill="#fbbf24"/><path d="M44 40 Q34 34 40 26 Q48 30 52 36 Z" fill="#fbbf24"/><path d="M50 30 v-8 M58 30 v-8" stroke-width="2.4"/><circle cx="50" cy="30" r="2" fill="#a9772f" stroke="none"/><circle cx="58" cy="30" r="2" fill="#a9772f" stroke="none"/><circle cx="46" cy="34" r="1.8" fill="#1F1B16" stroke="none"/><path d="M52 96 V108 M66 100 V108 M80 96 V108" stroke-width="4" stroke="#fbbf24"/><path d="M52 96 V108 M66 100 V108 M80 96 V108"/><circle cx="62" cy="82" r="4" fill="#a9772f" stroke="none"/><circle cx="74" cy="88" r="4" fill="#a9772f" stroke="none"/><circle cx="56" cy="54" r="3" fill="#a9772f" stroke="none"/></svg>