<?xml version="1.0" encoding="UTF-8"?>
<svg xmlns="http://www.w3.org/2000/svg" viewBox="0 0 480 320" fill="none" stroke="#1F1B16" stroke-width="2.6" stroke-linecap="round" stroke-linejoin="round"><circle cx="58" cy="56" r="24"/><path d="M58 22 V12 M58 100 V90 M24 56 H14 M102 56 H92 M34 32 l-7 -7 M82 80 l7 7 M82 32 l7 -7 M34 80 l-7 7"/><circle cx="51" cy="52" r="2.2" fill="#1F1B16"/><circle cx="65" cy="52" r="2.2" fill="#1F1B16"/><path d="M51 63 q7 6 14 0"/><path d="M150 80 l3 7 l7 3 l-7 3 l-3 7 l-3 -7 l-7 -3 l7 -3z"/><path d="M420 110 l2.6 6 l6 2.6 l-6 2.6 l-2.6 6 l-2.6 -6 l-6 -2.6 l6 -2.6z"/><path d="M0 292 H480"/><path d="M240 210 C 208 180 202 148 224 134 C 236 126 250 130 245 146 C 240 130 258 124 270 135 C 290 151 282 182 240 210 Z"/><circle cx="231" cy="158" r="3"/><circle cx="253" cy="158" r="3"/><path d="M233 170 q9 7 18 0"/><path d="M240 210 V232 M260 206 V228"/><path d="M196 236 Q242 220 242 232 Q242 220 288 236 L288 268 Q242 254 242 264 Q242 254 196 268 Z"/><path d="M242 232 V264"/><path d="M206 244 H232 M206 252 H232 M252 244 H278 M252 252 H278" stroke-width="1.8"/><path d="M224 214 L206 232 M258 214 L278 232"/></svg>