<?xml version="1.0" encoding="UTF-8"?>
<svg xmlns="http://www.w3.org/2000/svg" viewBox="0 0 120 120" fill="none" stroke="#065f46" stroke-width="3" stroke-linecap="round" stroke-linejoin="round"><ellipse cx="30" cy="66" rx="11" ry="16" fill="#8B5E3C"/><ellipse cx="90" cy="66" rx="11" ry="16" fill="#8B5E3C"/><circle cx="34" cy="53" r="4" fill="#E07856"/><circle cx="86" cy="53" r="4" fill="#E07856"/><path d="M34 58 Q30 26 60 26 Q90 26 86 58 Q78 42 60 42 Q42 42 34 58 Z" fill="#8B5E3C"/><circle cx="60" cy="62" r="24" fill="#F2C6A0"/><path d="M40 50 Q60 36 80 50" fill="#8B5E3C" stroke="none"/><path d="M40 50 Q60 36 80 50"/><circle cx="51" cy="62" r="2.6" fill="#1F1B16" stroke="none"/><circle cx="69" cy="62" r="2.6" fill="#1F1B16" stroke="none"/><circle cx="46" cy="70" r="3.4" fill="#F4A9A0" stroke="none"/><circle cx="74" cy="70" r="3.4" fill="#F4A9A0" stroke="none"/><path d="M52 72 q8 7 16 0" stroke-width="2.4"/></svg>
