<svg xmlns="http://www.w3.org/2000/svg" viewBox="0 0 140 200"><defs><marker id="ah" viewBox="0 0 10 10" refX="7.5" refY="5" markerWidth="3.4" markerHeight="3.4" orient="auto-start-reverse"><path d="M0 0 L10 5 L0 10 z" fill="#10b981"/></marker></defs><path d="M96 116 Q96 96 70 96 Q44 96 44 118 Q44 140 70 140 Q96 140 96 120" fill="none" stroke="#d8ceba" stroke-width="26" stroke-linecap="round" stroke-linejoin="round"/><path d="M96 96 V168 Q96 186 70 184" fill="none" stroke="#d8ceba" stroke-width="26" stroke-linecap="round" stroke-linejoin="round"/><path d="M94 120 Q92 100 70 100 Q48 100 48 118 Q48 136 70 136 Q92 136 92 118" fill="none" stroke="#10b981" stroke-width="6.5" stroke-linecap="round" stroke-dasharray="0.1 13" marker-end="url(#ah)"/><path d="M96 100 V166 Q96 182 72 180" fill="none" stroke="#10b981" stroke-width="6.5" stroke-linecap="round" stroke-dasharray="0.1 13" marker-end="url(#ah)"/><circle cx="96" cy="110" r="11" fill="#10b981"/><text x="96" y="110" font-family="Arial" font-size="14" font-weight="700" fill="#fff" text-anchor="middle" dominant-baseline="central">1</text><circle cx="96" cy="98" r="11" fill="#10b981"/><text x="96" y="98" font-family="Arial" font-size="14" font-weight="700" fill="#fff" text-anchor="middle" dominant-baseline="central">2</text></svg>