<?xml version="1.0" encoding="UTF-8"?>
<svg xmlns="http://www.w3.org/2000/svg" viewBox="0 0 260 260"><path d="M190 92 Q190 54 130 54 Q66 54 66 130 Q66 206 130 206 Q190 206 190 152 H150" stroke="#e7e0cf" stroke-width="26" stroke-linecap="round" stroke-linejoin="round" fill="none"/><path d="M188 98 Q184 60 130 60 Q74 60 74 130 Q74 200 130 200 Q184 200 184 152" stroke="#10b981" stroke-width="3.5" stroke-dasharray="1 10" stroke-linecap="round" fill="none"/><path d="M178 96 L190 88 L192 102 Z" fill="#10b981"/><path d="M184 152 H154" stroke="#10b981" stroke-width="3.5" stroke-dasharray="1 10" stroke-linecap="round" fill="none"/><path d="M158 146 L142 152 L158 158 Z" fill="#10b981"/><circle cx="190" cy="92" r="13" fill="#047857"/><text x="190" y="97" text-anchor="middle" font-family="Arial" font-size="15" font-weight="bold" fill="#fff">1</text><circle cx="184" cy="152" r="13" fill="#10b981"/><text x="184" y="157" text-anchor="middle" font-family="Arial" font-size="15" font-weight="bold" fill="#fff">2</text></svg>