<?xml version="1.0" encoding="UTF-8"?>
<svg xmlns="http://www.w3.org/2000/svg" viewBox="0 0 260 260"><path d="M168 128 Q168 106 128 106 Q88 106 88 138 Q88 170 128 170 Q168 170 168 148" stroke="#e7e0cf" stroke-width="26" stroke-linecap="round" stroke-linejoin="round" fill="none"/><path d="M168 106 V214 Q168 240 122 234" stroke="#e7e0cf" stroke-width="26" stroke-linecap="round" stroke-linejoin="round" fill="none"/><path d="M166 134 Q164 112 128 112 Q94 112 94 138 Q94 164 128 164 Q164 164 164 142" stroke="#10b981" stroke-width="3.5" stroke-dasharray="1 10" stroke-linecap="round" fill="none"/><path d="M158 134 L168 120 L172 134 Z" fill="#10b981"/><path d="M168 112 V212 Q168 234 126 230" stroke="#10b981" stroke-width="3.5" stroke-dasharray="1 10" stroke-linecap="round" fill="none"/><path d="M132 236 L118 230 L130 222 Z" fill="#10b981"/><circle cx="168" cy="120" r="13" fill="#047857"/><text x="168" y="125" text-anchor="middle" font-family="Arial" font-size="15" font-weight="bold" fill="#fff">1</text><circle cx="168" cy="106" r="13" fill="#10b981"/><text x="168" y="111" text-anchor="middle" font-family="Arial" font-size="15" font-weight="bold" fill="#fff">2</text></svg>