<?xml version="1.0" encoding="UTF-8"?>
<svg xmlns="http://www.w3.org/2000/svg" viewBox="0 0 360 260"><path d="M150 120 Q100 120 100 165 Q100 210 150 210" stroke="#e7e0cf" stroke-width="26" stroke-linecap="round" stroke-linejoin="round" fill="none"/><path d="M210 60 V210" stroke="#e7e0cf" stroke-width="26" stroke-linecap="round" stroke-linejoin="round" fill="none"/><path d="M210 150 Q210 128 252 128 Q294 128 294 158 V210" stroke="#e7e0cf" stroke-width="26" stroke-linecap="round" stroke-linejoin="round" fill="none"/><path d="M148 126 Q106 126 106 165 Q106 204 148 204" stroke="#10b981" stroke-width="3.5" stroke-dasharray="1 10" stroke-linecap="round" fill="none"/><path d="M156 200 L146 204 L152 214 Z" fill="#10b981"/><path d="M210 70 V204" stroke="#10b981" stroke-width="3.5" stroke-dasharray="1 10" stroke-linecap="round" fill="none"/><path d="M204 200 L210 216 L216 200 Z" fill="#10b981"/><path d="M210 148 Q214 132 252 132 Q290 132 290 158 V204" stroke="#10b981" stroke-width="3.5" stroke-dasharray="1 10" stroke-linecap="round" fill="none"/><path d="M284 200 L290 216 L296 200 Z" fill="#10b981"/><circle cx="150" cy="120" r="13" fill="#047857"/><text x="150" y="125" text-anchor="middle" font-family="Arial" font-size="15" font-weight="bold" fill="#fff">1</text><circle cx="210" cy="60" r="13" fill="#10b981"/><text x="210" y="65" text-anchor="middle" font-family="Arial" font-size="15" font-weight="bold" fill="#fff">2</text></svg>